<svg width="260" height="73" viewBox="0 0 260 73" fill="none" xmlns="http://www.w3.org/2000/svg">
<rect width="260" height="73" rx="36.5" fill="#E74242"/>
<path d="M71.9766 36.1924H67.749V42.2354H71.6465C72.679 42.2354 73.4788 41.9857 74.0459 41.4863C74.613 40.9785 74.8965 40.2422 74.8965 39.2773C74.8965 38.3125 74.651 37.5592 74.1602 37.0176C73.6777 36.4674 72.9499 36.1924 71.9766 36.1924ZM67.749 29.1338V34.4404H71.3926C72.2474 34.4404 72.9329 34.2077 73.4492 33.7422C73.974 33.2767 74.2363 32.6377 74.2363 31.8252C74.2363 30.0309 73.1361 29.1338 70.9355 29.1338H67.749ZM71.6465 44H65.502V27.3691H70.9355C72.7129 27.3691 74.0798 27.75 75.0361 28.5117C76.001 29.265 76.4834 30.3822 76.4834 31.8633C76.4834 32.5996 76.2507 33.2598 75.7852 33.8438C75.3197 34.4277 74.6934 34.8594 73.9062 35.1387C74.9049 35.3587 75.6921 35.8496 76.2676 36.6113C76.8516 37.3646 77.1436 38.2617 77.1436 39.3027C77.1436 40.8177 76.6569 41.9814 75.6836 42.7939C74.7188 43.598 73.373 44 71.6465 44ZM84.2783 44.2666C82.8903 44.2666 81.8281 43.8307 81.0918 42.959C80.3555 42.0788 79.9873 40.7415 79.9873 38.9473V31.6602H82.2344V38.9727C82.2344 40.2676 82.4206 41.1689 82.793 41.6768C83.1738 42.1846 83.7874 42.4385 84.6338 42.4385C86.1826 42.4385 87.2406 41.8164 87.8076 40.5723V31.6602H90.0547V44.0254H88.0361L87.8838 42.1973C87.0713 43.5768 85.8695 44.2666 84.2783 44.2666ZM95.7676 31.6348V44H93.5205V31.6348H95.7676ZM95.7676 26.1758V28.4736H93.5205V26.1758H95.7676ZM101.658 26.1758V44H99.4111V26.1758H101.658ZM104.591 38.0713C104.591 36.0485 105.018 34.4362 105.873 33.2344C106.728 32.0326 107.896 31.4316 109.377 31.4316C110.858 31.4316 111.996 31.9564 112.792 33.0059V26.2012H115.052V44.0254H113.211L112.944 42.502C112.123 43.6784 110.955 44.2666 109.44 44.2666C107.925 44.2666 106.741 43.7292 105.886 42.6543C105.031 41.571 104.604 40.1237 104.604 38.3125L104.591 38.0713ZM106.863 38.0713V38.3125C106.863 39.6074 107.121 40.6188 107.638 41.3467C108.162 42.0745 108.95 42.4385 109.999 42.4385C111.269 42.4385 112.208 41.8587 112.817 40.6992V34.9355C112.191 33.8184 111.26 33.2598 110.024 33.2598C108.966 33.2598 108.175 33.6914 107.65 34.5547C107.126 35.4095 106.863 36.5817 106.863 38.0713ZM126.147 31.6348L128.191 39.4932L128.458 40.9912H128.521L128.839 39.4932L131.314 31.6348H133.117L135.593 39.4932L135.948 41.1689H136.024L136.354 39.4932L138.297 31.6348H140.531L136.938 44H135.123L132.736 36.4717L132.229 34.3643L132.152 34.377L131.67 36.4717L129.309 44H127.493L123.913 31.6348H126.147ZM145.178 31.6348V44H142.931V31.6348H145.178ZM145.178 26.1758V28.4736H142.931V26.1758H145.178ZM149.354 28.6768H151.627V31.6602H153.963V33.3359H151.627V40.8389C151.627 41.8883 152.063 42.4131 152.935 42.4131C153.205 42.4131 153.485 42.3623 153.772 42.2607L154.064 43.7969C153.658 44.11 153.087 44.2666 152.351 44.2666C151.403 44.2666 150.666 43.9831 150.142 43.416C149.617 42.849 149.354 41.9899 149.354 40.8389V33.3359H147.399V31.6602H149.354V28.6768ZM158.99 26.1758V33.2979C159.879 32.0368 161.089 31.4062 162.621 31.4062C163.975 31.4062 165.012 31.8083 165.731 32.6123C166.451 33.4163 166.811 34.6309 166.811 36.2559V44H164.551V36.2305C164.551 35.2064 164.335 34.4531 163.903 33.9707C163.472 33.4798 162.816 33.2344 161.936 33.2344C160.683 33.2344 159.701 33.7803 158.99 34.8721V44H156.743V26.1758H158.99ZM180.89 44.2666C179.502 44.2666 178.439 43.8307 177.703 42.959C176.967 42.0788 176.599 40.7415 176.599 38.9473V31.6602H178.846V38.9727C178.846 40.2676 179.032 41.1689 179.404 41.6768C179.785 42.1846 180.399 42.4385 181.245 42.4385C182.794 42.4385 183.852 41.8164 184.419 40.5723V31.6602H186.666V44.0254H184.647L184.495 42.1973C183.683 43.5768 182.481 44.2666 180.89 44.2666ZM194.55 42.4766C195.345 42.4766 195.972 42.32 196.429 42.0068C196.886 41.6852 197.114 41.262 197.114 40.7373C197.114 40.2126 196.92 39.7979 196.53 39.4932C196.141 39.18 195.434 38.9049 194.41 38.668C192.853 38.3294 191.706 37.8809 190.97 37.3223C190.242 36.7552 189.878 35.9766 189.878 34.9863C189.878 33.9961 190.31 33.154 191.173 32.46C192.036 31.7575 193.162 31.4062 194.55 31.4062C195.938 31.4062 197.059 31.7744 197.914 32.5107C198.777 33.2386 199.188 34.1442 199.146 35.2275L199.12 35.291H196.975C196.975 34.724 196.742 34.2331 196.276 33.8184C195.819 33.4036 195.214 33.1963 194.461 33.1963C193.716 33.1963 193.141 33.3656 192.734 33.7041C192.328 34.0342 192.125 34.4574 192.125 34.9736C192.125 35.4899 192.303 35.8835 192.658 36.1543C193.014 36.4251 193.712 36.6706 194.753 36.8906C196.344 37.2376 197.512 37.7031 198.257 38.2871C199.002 38.8626 199.374 39.6286 199.374 40.585C199.374 41.6852 198.93 42.5739 198.041 43.251C197.161 43.9281 195.976 44.2666 194.486 44.2666C192.997 44.2666 191.791 43.8773 190.868 43.0986C189.954 42.32 189.518 41.3763 189.561 40.2676L189.586 40.2041H191.731C191.774 40.9658 192.057 41.5413 192.582 41.9307C193.115 42.3115 193.78 42.502 194.575 42.502L194.55 42.4766Z" fill="white"/>
</svg>
