<svg width="419" height="65" viewBox="0 0 419 65" fill="none" xmlns="http://www.w3.org/2000/svg">
<path d="M6.5948 56.3799V28.4019H10.9114V52.2232H28.4975V56.3799H6.5948ZM60.6278 56.3799L73.6975 28.4019H78.6137L91.6434 56.3799H86.9271L78.134 37.5947C77.9209 37.1417 77.6944 36.6621 77.4546 36.1558C77.2148 35.6229 76.975 35.0767 76.7351 34.5171C76.4953 33.9576 76.2688 33.398 76.0557 32.8384C75.8425 32.2522 75.6427 31.6794 75.4562 31.1198L76.6552 31.0798C76.442 31.6927 76.2156 32.2922 75.9757 32.8784C75.7626 33.4646 75.5228 34.0375 75.2563 34.5971C75.0165 35.1566 74.7767 35.7028 74.5369 36.2358C74.2971 36.742 74.0706 37.2483 73.8574 37.7546L65.1443 56.3799H60.6278ZM66.3433 49.7451L68.022 45.5884H83.8495L84.7688 49.7451H66.3433ZM125.361 56.3799V28.4019H129.597L141.828 44.3494H140.229L152.499 28.4019H156.656V56.3799H152.339V44.5892C152.339 42.3509 152.393 40.2593 152.499 38.3141C152.632 36.369 152.846 34.3972 153.139 32.3988L153.618 33.9975L142.307 48.3462H139.669L128.438 34.0375L128.878 32.3988C129.198 34.3706 129.411 36.329 129.517 38.2742C129.624 40.1926 129.677 42.2976 129.677 44.5892V56.3799H125.361ZM193.917 56.3799V52.1432H200.672V32.6386H193.917V28.4019H211.743V32.6386H204.988V52.1432H211.743V56.3799H193.917ZM249.005 56.3799V28.4019H253.202L274.785 51.3039L274.465 51.6636C274.332 50.8909 274.225 50.0649 274.145 49.1856C274.066 48.2796 273.986 47.347 273.906 46.3878C273.852 45.4285 273.799 44.4559 273.746 43.4701C273.719 42.4575 273.693 41.4583 273.666 40.4724C273.666 39.4865 273.666 38.5273 273.666 37.5947V28.4019H277.982V56.3799H273.706L252.403 34.3173L252.523 33.7577C252.602 34.4771 252.669 35.2232 252.722 35.9959C252.776 36.742 252.842 37.5014 252.922 38.2742C253.002 39.0469 253.069 39.8063 253.122 40.5524C253.202 41.2984 253.255 42.0312 253.282 42.7506C253.309 43.4701 253.322 44.1362 253.322 44.749V56.3799H249.005ZM311.703 56.3799L324.773 28.4019H329.689L342.719 56.3799H338.003L329.21 37.5947C328.996 37.1417 328.77 36.6621 328.53 36.1558C328.29 35.6229 328.05 35.0767 327.811 34.5171C327.571 33.9576 327.344 33.398 327.131 32.8384C326.918 32.2522 326.718 31.6794 326.532 31.1198L327.731 31.0798C327.518 31.6927 327.291 32.2922 327.051 32.8784C326.838 33.4646 326.598 34.0375 326.332 34.5971C326.092 35.1566 325.852 35.7028 325.612 36.2358C325.373 36.742 325.146 37.2483 324.933 37.7546L316.22 56.3799H311.703ZM317.419 49.7451L319.098 45.5884H334.925L335.844 49.7451H317.419Z" fill="#151515"/>
<path d="M367.315 27.5374V10.5837L368.509 10.7627L363.584 13.4491L362.48 10.7926L367.942 7.80778H370.569V27.5374H367.315ZM363.047 29V25.8958H374.21V29H363.047Z" fill="#151515"/>
</svg>
