<svg width="160" height="65" viewBox="0 0 160 65" fill="none" xmlns="http://www.w3.org/2000/svg">
<path d="M8.42774 47.6624H2.30473C1.27276 47.6624 0.756777 47.1349 0.756777 46.08V20.5216H4.67825V43.5689C4.67825 43.8211 4.79292 43.9473 5.02224 43.9473H8.42774V47.6624Z" fill="black"/>
<path fill-rule="evenodd" clip-rule="evenodd" d="M16.0653 32.6211C18.4035 32.6211 20.299 30.7256 20.299 28.3874C20.299 26.0492 18.4035 24.1537 16.0653 24.1537C13.727 24.1537 11.8315 26.0492 11.8315 28.3874C11.8315 30.7256 13.727 32.6211 16.0653 32.6211ZM15.0549 28.3444C15.921 28.3444 16.6231 27.6423 16.6231 26.7762C16.6231 25.9101 15.921 25.208 15.0549 25.208C14.1888 25.208 13.4867 25.9101 13.4867 26.7762C13.4867 27.6423 14.1888 28.3444 15.0549 28.3444Z" fill="black"/>
<path fill-rule="evenodd" clip-rule="evenodd" d="M16.0653 43.982C18.4035 43.982 20.299 42.0865 20.299 39.7482C20.299 37.41 18.4035 35.5145 16.0653 35.5145C13.727 35.5145 11.8315 37.41 11.8315 39.7482C11.8315 42.0865 13.727 43.982 16.0653 43.982ZM15.0549 39.9492C15.921 39.9492 16.6231 39.2471 16.6231 38.381C16.6231 37.5149 15.921 36.8128 15.0549 36.8128C14.1888 36.8128 13.4867 37.5149 13.4867 38.381C13.4867 39.2471 14.1888 39.9492 15.0549 39.9492Z" fill="black"/>
<path fill-rule="evenodd" clip-rule="evenodd" d="M24.8948 38.4822C27.2331 38.4822 29.1286 36.5867 29.1286 34.2485C29.1286 31.9103 27.2331 30.0148 24.8948 30.0148C22.5566 30.0148 20.6611 31.9103 20.6611 34.2485C20.6611 36.5867 22.5566 38.4822 24.8948 38.4822ZM23.8369 34.3036C24.703 34.3036 25.4051 33.6015 25.4051 32.7354C25.4051 31.8693 24.703 31.1672 23.8369 31.1672C22.9708 31.1672 22.2687 31.8693 22.2687 32.7354C22.2687 33.6015 22.9708 34.3036 23.8369 34.3036Z" fill="black"/>
<path d="M77.0628 57H66.939C65.2328 57 64.3797 56.1279 64.3797 54.3837V12.1256H70.8634V50.2319C70.8634 50.649 71.053 50.8575 71.4322 50.8575H77.0628V57ZM87.1217 57H80.6379V12.1256H87.1217V57ZM104.025 57H93.9013C92.1951 57 91.342 56.1279 91.342 54.3837V12.1256H97.8257V50.2319C97.8257 50.649 98.0153 50.8575 98.3945 50.8575H104.025V57ZM120.283 57H110.16C108.453 57 107.6 56.1279 107.6 54.3837V12.1256H114.084V50.2319C114.084 50.649 114.274 50.8575 114.653 50.8575H120.283V57ZM137.508 57H126.475C124.731 57 123.858 56.1279 123.858 54.3837V14.7419C123.858 12.9977 124.731 12.1256 126.475 12.1256H137.508V18.325H130.911C130.532 18.325 130.342 18.5335 130.342 18.9506V31.2925H137.508V37.2644H130.342V50.2319C130.342 50.649 130.532 50.8575 130.911 50.8575H137.508V57ZM152.367 57H145.77V18.325H140.878V12.1256H157.258V18.325H152.367V57Z" fill="black"/>
</svg>
