<svg width="1684" height="828" viewBox="0 0 1684 828" fill="none" xmlns="http://www.w3.org/2000/svg">
<rect width="1684" height="828" fill="#DA2730"/>
<path d="M110 184C110 148.102 139.101 119 175 119H1521C1556.9 119 1586 148.101 1586 184V828H110V184Z" fill="#E73841"/>
<path d="M235 293C235 257.102 264.101 228 300 228H1378C1413.9 228 1443 257.101 1443 293V828H235V293Z" fill="#FF4D56"/>
<path d="M380 431C380 395.101 409.101 366 445 366H1245C1280.9 366 1310 395.101 1310 431V828H380V431Z" fill="#FF7077"/>
<path d="M475 542C475 506.101 504.101 477 540 477H1148C1183.9 477 1213 506.101 1213 542V828H475V542Z" fill="#FFA4A9"/>
<path d="M575 641C575 605.101 604.101 576 640 576H1040C1075.9 576 1105 605.101 1105 641V828H575V641Z" fill="#FFD5D5"/>
</svg>
