<svg width="151" height="36" viewBox="0 0 151 36" fill="none" xmlns="http://www.w3.org/2000/svg">
<path d="M24.2592 25.7293C24.2592 23.5018 23.6631 21.6508 22.471 20.1762C21.3102 18.6703 19.6631 17.5252 17.5297 16.7409C16.9336 16.5213 16.3532 16.3174 15.7885 16.1291C15.2552 15.9409 14.7218 15.7683 14.1885 15.6115C13.6551 15.4232 13.1061 15.235 12.5414 15.0468C12.0081 14.8585 11.4277 14.6389 10.8002 14.3879C9.20017 13.7918 7.89819 12.9918 6.89425 11.9879C5.89032 10.9839 5.38835 9.65059 5.38835 7.98782C5.38835 6.92114 5.5609 5.97995 5.906 5.16425C6.28248 4.31718 6.78445 3.61129 7.41191 3.04657C8.07074 2.48186 8.82369 2.05832 9.67077 1.77596C10.5492 1.49361 11.4747 1.35243 12.4473 1.35243C13.6708 1.35243 14.7846 1.60341 15.7885 2.10538C16.7924 2.60735 17.6866 3.26618 18.4709 4.08188C19.2552 4.86621 19.9454 5.77602 20.5415 6.81133C21.1376 7.81527 21.6239 8.83489 22.0004 9.8702H22.518V1.16419H22.0004C21.7494 1.54067 21.467 1.91714 21.1533 2.29362C20.8709 2.67009 20.6827 2.85833 20.5886 2.85833C20.5572 2.85833 20.369 2.74853 20.0239 2.52891C19.7101 2.27793 19.2239 2.01126 18.565 1.7289C17.9376 1.44655 17.1219 1.19556 16.1179 0.97595C15.114 0.724968 13.9061 0.599476 12.4943 0.599476C10.9884 0.599476 9.54527 0.8034 8.16486 1.21125C6.81582 1.58772 5.62365 2.18381 4.58834 2.99951C3.55303 3.81521 2.72164 4.83483 2.09418 6.05838C1.49809 7.28193 1.20005 8.74078 1.20005 10.4349C1.20005 11.4389 1.3726 12.3957 1.7177 13.3056C2.06281 14.184 2.51772 14.9997 3.08243 15.7526C3.64714 16.4742 4.30598 17.1174 5.05893 17.6821C5.81188 18.2154 6.59621 18.639 7.41191 18.9527C8.13349 19.2351 8.74526 19.4704 9.24723 19.6586C9.78057 19.8155 10.2825 19.988 10.7531 20.1762C11.2551 20.3331 11.7884 20.5057 12.3532 20.6939C12.9179 20.8821 13.5767 21.1174 14.3297 21.3998C15.0826 21.6822 15.7885 21.9959 16.4473 22.341C17.1062 22.6861 17.6709 23.1096 18.1415 23.6116C18.6435 24.0822 19.0356 24.6469 19.318 25.3057C19.6003 25.9646 19.7415 26.7332 19.7415 27.6117C19.7415 29.7764 19.0199 31.5019 17.5768 32.7882C16.1336 34.0431 14.2512 34.6706 11.9296 34.6706C11.1139 34.6706 10.2669 34.5294 9.38841 34.247C8.50996 33.9647 7.80407 33.6823 7.27073 33.4C6.73739 33.1176 6.17267 32.7098 5.57659 32.1764C5.01187 31.6431 4.46284 31.0313 3.9295 30.3411C3.42753 29.6195 2.95694 28.8666 2.51772 28.0822C2.07849 27.2665 1.7177 26.4352 1.43535 25.5881H0.964751L1.10593 34.9529H1.52947C1.78045 34.6078 2.06281 34.247 2.37654 33.8706C2.69027 33.4941 2.89419 33.3059 2.98831 33.3059C3.08243 33.3059 3.30204 33.4157 3.64714 33.6353C4.02362 33.8549 4.57265 34.1059 5.29423 34.3882C6.01581 34.6392 6.92563 34.8588 8.02368 35.0471C9.12174 35.2353 10.4394 35.3294 11.9767 35.3294C13.7649 35.3294 15.412 35.1255 16.9179 34.7176C18.4238 34.3098 19.7101 33.6823 20.7768 32.8353C21.8749 31.9882 22.7219 30.9686 23.318 29.7764C23.9455 28.5842 24.2592 27.2352 24.2592 25.7293ZM41.5244 12.7408H32.8183V8.64666H32.4419L25.6182 15.0938V15.6115H29.0536C29.0536 17.6821 29.0379 20.0508 29.0065 22.7175C28.9751 25.3528 28.9595 28.145 28.9595 31.0941C28.9595 31.596 29.1006 32.098 29.383 32.6C29.6967 33.0706 30.0889 33.5098 30.5595 33.9176C31.0301 34.2941 31.5634 34.5922 32.1595 34.8118C32.787 35 33.4301 35.0941 34.0889 35.0941C35.0929 35.0941 35.9556 34.9843 36.6772 34.7647C37.4302 34.5137 38.0733 34.1843 38.6067 33.7765C39.1714 33.3372 39.6106 32.8666 39.9243 32.3647C40.2694 31.8313 40.5361 31.3294 40.7243 30.8588L40.442 30.7176C40.0028 31.345 39.4851 31.8156 38.889 32.1294C38.2929 32.4117 37.54 32.5529 36.6302 32.5529C35.5321 32.5529 34.638 32.1921 33.9478 31.4705C33.2576 30.749 32.9125 29.5882 32.9125 27.9881V15.6115H40.0655L41.5244 12.7408ZM62.5895 33.8235V33.5412C62.2131 33.3843 61.7425 33.1804 61.1778 32.9294C60.6444 32.6784 60.2366 32.4745 59.9542 32.3176C59.7346 32.1607 59.5934 32.0196 59.5307 31.8941C59.4993 31.7686 59.4836 31.5803 59.4836 31.3294V12.7408H51.5776V13.2585C52.2678 13.3212 52.9267 13.3997 53.5541 13.4938C54.2129 13.5879 54.7306 13.7134 55.1071 13.8703C55.2953 14.1212 55.4208 14.4977 55.4836 14.9997C55.5463 15.4703 55.5777 15.8625 55.5777 16.1762V29.5882C55.2953 29.9646 54.9816 30.3254 54.6365 30.6705C54.3228 31.0156 53.962 31.3294 53.5541 31.6117C53.1776 31.8627 52.7384 32.0823 52.2364 32.2705C51.7659 32.4274 51.2011 32.5058 50.5423 32.5058C48.8168 32.5058 47.6403 32.0196 47.0128 31.047C46.3854 30.0431 46.0716 28.5058 46.0716 26.4352V12.7408H38.7774V13.2585C39.0598 13.2899 39.3578 13.3212 39.6716 13.3526C39.9853 13.3526 40.2833 13.384 40.5657 13.4467C40.848 13.5095 41.099 13.6036 41.3186 13.7291C41.5696 13.8546 41.7579 14.0585 41.8833 14.3409C41.9461 14.435 41.9775 14.5918 41.9775 14.8115C42.0088 14.9997 42.0402 15.2193 42.0716 15.4703C42.103 15.6899 42.1186 15.9095 42.1186 16.1291C42.1186 16.3487 42.1186 16.5213 42.1186 16.6468V28.1293C42.1186 30.4195 42.5892 32.1607 43.5304 33.3529C44.503 34.5451 45.9932 35.1412 48.0011 35.1412C48.8795 35.1412 49.6952 35 50.4482 34.7176C51.2325 34.4353 51.9384 34.0588 52.5659 33.5882C53.1933 33.0862 53.758 32.5372 54.26 31.9411C54.762 31.345 55.1855 30.7803 55.5306 30.247L55.5777 30.294V35.0471H55.9071L62.5895 33.8235ZM87.0063 33.1647V32.8353C86.4102 32.5843 85.767 32.3176 85.0768 32.0352C84.3866 31.7529 83.916 31.5333 83.665 31.3764V0.834774H83.2886L75.8061 2.90539V3.18775L79.665 4.64659C79.665 4.9917 79.665 5.54073 79.665 6.29368C79.665 7.01526 79.665 7.79959 79.665 8.64666C79.665 9.49373 79.665 10.3251 79.665 11.1408C79.6963 11.9565 79.7277 12.5997 79.7591 13.0703C79.0689 12.8506 78.3002 12.6624 77.4532 12.5055C76.6375 12.3487 75.759 12.2702 74.8178 12.2702C73.0296 12.2702 71.3982 12.5683 69.9236 13.1644C68.4491 13.7605 67.1785 14.5918 66.1118 15.6585C65.0765 16.6938 64.2608 17.9174 63.6647 19.3292C63.1 20.741 62.8177 22.2626 62.8177 23.8939C62.8177 25.7136 63.0686 27.3293 63.5706 28.7411C64.0726 30.1215 64.7471 31.298 65.5942 32.2705C66.4412 33.2117 67.3981 33.9176 68.4648 34.3882C69.5629 34.8274 70.6923 35.0471 71.8531 35.0471C73.7041 35.0471 75.2414 34.6706 76.4649 33.9176C77.7198 33.1647 78.8022 32.0039 79.712 30.4352H79.7591V35.1412H80.0414L87.0063 33.1647ZM79.712 28.647C79.461 29.996 78.865 31.1097 77.9238 31.9882C77.0139 32.8666 75.9159 33.3059 74.6296 33.3059C73.4061 33.3059 72.3237 33.0235 71.3825 32.4588C70.4727 31.8941 69.704 31.1568 69.0766 30.247C68.4491 29.3058 67.9785 28.2391 67.6648 27.0469C67.3511 25.8234 67.1942 24.5685 67.1942 23.2822C67.1942 21.9959 67.3197 20.741 67.5707 19.5174C67.853 18.2939 68.2766 17.2115 68.8413 16.2703C69.406 15.3291 70.1119 14.5762 70.959 14.0114C71.8374 13.4467 72.8884 13.1644 74.1119 13.1644C75.0218 13.1644 76.01 13.5565 77.0767 14.3409C78.1434 15.1252 79.0218 16.1605 79.712 17.4468V28.647ZM94.4562 4.83483C94.4562 4.11325 94.2052 3.51717 93.7032 3.04657C93.2326 2.57598 92.6365 2.34068 91.915 2.34068C91.1934 2.34068 90.5816 2.57598 90.0796 3.04657C89.609 3.51717 89.3737 4.11325 89.3737 4.83483C89.3737 5.52504 89.6247 6.12113 90.1267 6.6231C90.6287 7.12506 91.2247 7.37605 91.915 7.37605C92.6365 7.37605 93.2326 7.14075 93.7032 6.67015C94.2052 6.16819 94.4562 5.55641 94.4562 4.83483ZM97.0915 35V34.5294C96.7778 34.4667 96.4484 34.4353 96.1033 34.4353C95.7895 34.4039 95.4915 34.3569 95.2091 34.2941C94.9268 34.2314 94.6758 34.1372 94.4562 34.0117C94.2679 33.8549 94.1424 33.6196 94.0797 33.3059V12.2702H93.7973L87.4443 14.3409V14.6232C87.8835 14.7801 88.2914 14.9526 88.6678 15.1409C89.0757 15.3291 89.4208 15.5173 89.7032 15.7056C89.9228 15.8625 90.0483 16.035 90.0796 16.2232C90.1424 16.4115 90.1738 16.6311 90.1738 16.8821V33.0235C90.1738 33.3059 90.0639 33.5412 89.8443 33.7294C89.6561 33.9176 89.4051 34.0745 89.0914 34.2C88.809 34.2941 88.4796 34.3725 88.1031 34.4353C87.7267 34.4667 87.3502 34.498 86.9737 34.5294V35H97.0915ZM119.742 23.4704C119.742 21.588 119.397 19.9566 118.707 18.5762C118.048 17.1644 117.185 16.0036 116.118 15.0938C115.083 14.1526 113.922 13.4467 112.636 12.9761C111.35 12.5055 110.079 12.2702 108.824 12.2702C107.13 12.2702 105.577 12.584 104.165 13.2114C102.785 13.8389 101.593 14.6703 100.589 15.7056C99.6162 16.7409 98.8476 17.9331 98.2829 19.2821C97.7495 20.6312 97.4828 22.0273 97.4828 23.4704C97.4828 25.4783 97.8279 27.2352 98.5182 28.7411C99.2397 30.2156 100.15 31.4392 101.248 32.4117C102.377 33.3529 103.601 34.0431 104.918 34.4823C106.236 34.9216 107.507 35.1412 108.73 35.1412C110.205 35.1412 111.601 34.8431 112.918 34.247C114.267 33.651 115.444 32.8196 116.448 31.7529C117.452 30.6862 118.252 29.447 118.848 28.0352C119.444 26.592 119.742 25.0704 119.742 23.4704ZM115.365 23.4234C115.365 24.5214 115.24 25.7136 114.989 26.9999C114.769 28.2862 114.393 29.494 113.86 30.6235C113.358 31.7215 112.683 32.647 111.836 33.4C111.02 34.1216 110.001 34.4823 108.777 34.4823C107.554 34.4823 106.503 34.2 105.624 33.6353C104.746 33.0392 104.024 32.2549 103.459 31.2823C102.895 30.2784 102.487 29.1332 102.236 27.8469C101.985 26.5607 101.859 25.1959 101.859 23.7528C101.859 22.4351 102.001 21.1488 102.283 19.8939C102.597 18.6076 103.036 17.4625 103.601 16.4585C104.197 15.4232 104.903 14.5918 105.718 13.9644C106.534 13.3369 107.459 13.0232 108.495 13.0232C109.781 13.0232 110.863 13.3683 111.742 14.0585C112.62 14.7173 113.326 15.5644 113.86 16.5997C114.393 17.635 114.769 18.7645 114.989 19.988C115.24 21.2116 115.365 22.3567 115.365 23.4234ZM142.055 23.8469C142.055 22.4665 141.804 21.1802 141.302 19.988C140.8 18.7645 140.095 17.6978 139.185 16.788C138.275 15.8781 137.177 15.1722 135.891 14.6703C134.636 14.1369 133.224 13.8703 131.655 13.8703C130.934 13.8703 130.322 13.9173 129.82 14.0114C129.349 14.0742 128.847 14.184 128.314 14.3409C129.161 12.6781 130.102 11.1722 131.138 9.82314C132.204 8.44273 133.334 7.21918 134.526 6.1525C135.718 5.05445 136.926 4.11325 138.149 3.32893C139.404 2.51323 140.644 1.83871 141.867 1.30537L141.491 0.740653C140.016 1.1485 138.479 1.7289 136.879 2.48186C135.279 3.23481 133.694 4.12894 132.126 5.16425C130.557 6.19956 129.067 7.39174 127.655 8.74078C126.243 10.0584 124.988 11.4859 123.89 13.0232C122.824 14.5605 121.977 16.1919 121.349 17.9174C120.722 19.6429 120.408 21.4469 120.408 23.3292C120.408 24.8665 120.69 26.3567 121.255 27.7999C121.82 29.2117 122.588 30.4666 123.561 31.5647C124.534 32.6313 125.663 33.4784 126.949 34.1059C128.267 34.702 129.647 35 131.091 35C132.722 35 134.212 34.7176 135.561 34.1529C136.91 33.5568 138.055 32.7411 138.997 31.7058C139.969 30.6705 140.722 29.4783 141.255 28.1293C141.789 26.7803 142.055 25.3528 142.055 23.8469ZM137.773 25.7763C137.773 28.6313 137.161 30.7803 135.938 32.2235C134.714 33.6353 133.145 34.3412 131.232 34.3412C129.224 34.3412 127.624 33.5725 126.432 32.0352C125.271 30.4666 124.69 28.2705 124.69 25.4469C124.69 23.7528 124.91 22.0586 125.349 20.3645C125.788 18.639 126.62 17.1017 127.843 15.7526C128.189 15.3762 128.581 15.1252 129.02 14.9997C129.459 14.8428 129.945 14.7644 130.479 14.7644C131.765 14.7644 132.863 15.1095 133.773 15.7997C134.714 16.4585 135.467 17.3213 136.032 18.388C136.628 19.4233 137.067 20.5998 137.349 21.9174C137.632 23.2037 137.773 24.49 137.773 25.7763ZM150.297 32.4588C150.297 31.6431 150.046 30.9529 149.544 30.3882C149.042 29.7921 148.383 29.494 147.567 29.494C146.752 29.494 146.077 29.7764 145.544 30.3411C145.01 30.8744 144.744 31.549 144.744 32.3647C144.744 33.1804 145.01 33.8392 145.544 34.3412C146.077 34.8118 146.752 35.0471 147.567 35.0471C148.383 35.0471 149.042 34.8274 149.544 34.3882C150.046 33.9176 150.297 33.2745 150.297 32.4588Z" fill="white"/>
</svg>
