<svg width="419" height="65" viewBox="0 0 419 65" fill="none" xmlns="http://www.w3.org/2000/svg">
<path d="M9.31726 42.6156C8.95903 42.6156 8.69036 42.526 8.51124 42.3469C8.33213 42.1678 8.24257 41.8991 8.24257 41.5409V27.442H3.27854C2.92031 27.442 2.65164 27.3525 2.47252 27.1734C2.29341 26.9943 2.20385 26.7256 2.20385 26.3674C2.20385 26.0091 2.29341 25.7405 2.47252 25.5613C2.65164 25.3822 2.92031 25.2927 3.27854 25.2927H15.356C15.7142 25.2927 15.9829 25.3822 16.162 25.5613C16.3411 25.7405 16.4307 26.0091 16.4307 26.3674C16.4307 26.7256 16.3411 26.9943 16.162 27.1734C15.9829 27.3525 15.7142 27.442 15.356 27.442H10.3919V41.5409C10.3919 41.8821 10.2981 42.1465 10.1105 42.3341C9.93136 42.5218 9.66696 42.6156 9.31726 42.6156ZM27.3121 42.6156C27.0306 42.6156 26.779 42.509 26.5572 42.2958C26.344 42.074 26.2374 41.8224 26.2374 41.5409V26.3418C26.2374 26.0603 26.344 25.813 26.5572 25.5997C26.779 25.378 27.0306 25.2671 27.3121 25.2671C27.5935 25.2671 27.8409 25.378 28.0541 25.5997C28.2759 25.813 28.3868 26.0603 28.3868 26.3418V32.7643H38.8266V26.3418C38.8266 26.0603 38.9332 25.813 39.1464 25.5997C39.3597 25.378 39.6113 25.2671 39.9013 25.2671C40.1827 25.2671 40.4301 25.378 40.6433 25.5997C40.8651 25.813 40.9759 26.0603 40.9759 26.3418V41.5409C40.9759 41.8224 40.8651 42.074 40.6433 42.2958C40.4301 42.509 40.1827 42.6156 39.9013 42.6156C39.6113 42.6156 39.3597 42.509 39.1464 42.2958C38.9332 42.074 38.8266 41.8224 38.8266 41.5409V34.9137H28.3868V41.5409C28.3868 41.8224 28.2759 42.074 28.0541 42.2958C27.8409 42.509 27.5935 42.6156 27.3121 42.6156ZM53.7744 42.6156C53.058 42.6156 52.6997 42.2574 52.6997 41.5409V26.3418C52.6997 25.6253 53.058 25.2671 53.7744 25.2671H62.9605C63.6769 25.2671 64.0351 25.6253 64.0351 26.3418C64.0351 27.0582 63.6769 27.4165 62.9605 27.4165H54.8491V32.7899H59.9411C60.6576 32.7899 61.0158 33.1481 61.0158 33.8646C61.0158 34.581 60.6576 34.9393 59.9411 34.9393H54.8491V40.4662H62.9605C63.6769 40.4662 64.0351 40.8245 64.0351 41.5409C64.0351 42.2574 63.6769 42.6156 62.9605 42.6156H53.7744ZM94.075 42.6156C92.1218 42.6156 90.6761 42.1508 89.7379 41.2211C88.8082 40.2828 88.3433 38.8371 88.3433 36.8839V30.9987C88.3433 29.0285 88.8082 27.5785 89.7379 26.6488C90.6676 25.7106 92.1047 25.25 94.0494 25.2671H97.1455C98.749 25.2671 99.973 25.5997 100.817 26.265C101.662 26.9218 102.152 27.9623 102.289 29.3867C102.34 29.7449 102.272 30.0179 102.084 30.2055C101.896 30.3932 101.623 30.487 101.265 30.487C100.617 30.487 100.242 30.1288 100.139 29.4123C100.054 28.6276 99.7811 28.0988 99.3205 27.8259C98.8684 27.5529 98.1435 27.4165 97.1455 27.4165H94.0494C93.1453 27.4079 92.4331 27.5103 91.9128 27.7235C91.4011 27.9367 91.0343 28.3078 90.8126 28.8366C90.5993 29.3569 90.4927 30.0776 90.4927 30.9987V36.8839C90.4927 37.7966 90.5993 38.513 90.8126 39.0333C91.0343 39.5536 91.4053 39.9246 91.9256 40.1464C92.4459 40.3596 93.1624 40.4662 94.075 40.4662H97.1455C98.1435 40.4662 98.8684 40.3298 99.3205 40.0568C99.7811 39.7754 100.054 39.2465 100.139 38.4704C100.242 37.7539 100.617 37.3957 101.265 37.3957C101.623 37.3957 101.896 37.4895 102.084 37.6772C102.272 37.8648 102.34 38.1377 102.289 38.496C102.152 39.9289 101.662 40.9737 100.817 41.6305C99.973 42.2872 98.749 42.6156 97.1455 42.6156H94.075ZM118.775 42.6156C116.821 42.6156 115.376 42.1508 114.437 41.2211C113.508 40.2828 113.043 38.8371 113.043 36.8839V26.3418C113.043 25.9835 113.132 25.7149 113.312 25.5358C113.491 25.3566 113.759 25.2671 114.118 25.2671C114.476 25.2671 114.745 25.3566 114.924 25.5358C115.103 25.7149 115.192 25.9835 115.192 26.3418V36.8839C115.192 37.7966 115.299 38.513 115.512 39.0333C115.734 39.5536 116.105 39.9246 116.625 40.1464C117.146 40.3596 117.862 40.4662 118.775 40.4662H121.845C122.758 40.4662 123.474 40.3596 123.995 40.1464C124.515 39.9246 124.882 39.5536 125.095 39.0333C125.317 38.513 125.427 37.7966 125.427 36.8839V26.3418C125.427 25.9835 125.517 25.7149 125.696 25.5358C125.875 25.3566 126.144 25.2671 126.502 25.2671C126.86 25.2671 127.129 25.3566 127.308 25.5358C127.487 25.7149 127.577 25.9835 127.577 26.3418V36.8839C127.577 38.8371 127.112 40.2828 126.182 41.2211C125.253 42.1508 123.807 42.6156 121.845 42.6156H118.775ZM140.233 42.6156C139.517 42.6156 139.158 42.2574 139.158 41.5409V26.3418C139.158 25.6253 139.517 25.2671 140.233 25.2671C140.95 25.2671 141.308 25.6253 141.308 26.3418V40.4662H148.396C149.112 40.4662 149.47 40.8245 149.47 41.5409C149.47 42.2574 149.112 42.6156 148.396 42.6156H140.233ZM162.294 42.6156C161.936 42.6156 161.667 42.526 161.488 42.3469C161.309 42.1678 161.22 41.8991 161.22 41.5409V27.442H156.256C155.897 27.442 155.629 27.3525 155.449 27.1734C155.27 26.9943 155.181 26.7256 155.181 26.3674C155.181 26.0091 155.27 25.7405 155.449 25.5613C155.629 25.3822 155.897 25.2927 156.256 25.2927H168.333C168.691 25.2927 168.96 25.3822 169.139 25.5613C169.318 25.7405 169.408 26.0091 169.408 26.3674C169.408 26.7256 169.318 26.9943 169.139 27.1734C168.96 27.3525 168.691 27.442 168.333 27.442H163.369V41.5409C163.369 41.8821 163.275 42.1465 163.087 42.3341C162.908 42.5218 162.644 42.6156 162.294 42.6156ZM184.818 42.6156C182.865 42.6156 181.419 42.1508 180.481 41.2211C179.551 40.2828 179.086 38.8371 179.086 36.8839V26.3418C179.086 25.9835 179.176 25.7149 179.355 25.5358C179.534 25.3566 179.803 25.2671 180.161 25.2671C180.519 25.2671 180.788 25.3566 180.967 25.5358C181.146 25.7149 181.236 25.9835 181.236 26.3418V36.8839C181.236 37.7966 181.342 38.513 181.556 39.0333C181.777 39.5536 182.148 39.9246 182.669 40.1464C183.189 40.3596 183.905 40.4662 184.818 40.4662H187.889C188.801 40.4662 189.518 40.3596 190.038 40.1464C190.558 39.9246 190.925 39.5536 191.138 39.0333C191.36 38.513 191.471 37.7966 191.471 36.8839V26.3418C191.471 25.9835 191.56 25.7149 191.74 25.5358C191.919 25.3566 192.187 25.2671 192.546 25.2671C192.904 25.2671 193.172 25.3566 193.352 25.5358C193.531 25.7149 193.62 25.9835 193.62 26.3418V36.8839C193.62 38.8371 193.155 40.2828 192.226 41.2211C191.296 42.1508 189.85 42.6156 187.889 42.6156H184.818ZM216.358 42.6668C216.077 42.8459 215.808 42.9013 215.552 42.8331C215.296 42.7649 215.079 42.59 214.9 42.3085L210.934 35.7069H207.351V41.5409C207.351 42.2574 206.993 42.6156 206.277 42.6156C205.56 42.6156 205.202 42.2574 205.202 41.5409V26.3418C205.202 25.6253 205.56 25.2671 206.277 25.2671H212.264C213.825 25.2671 215.019 25.685 215.846 26.5209C216.682 27.3482 217.1 28.5423 217.1 30.1032V30.8708C217.1 32.227 216.785 33.3102 216.154 34.1205C215.522 34.9222 214.61 35.4212 213.416 35.6173L216.768 41.2083C217.092 41.8053 216.955 42.2915 216.358 42.6668ZM207.351 33.5575H212.264C213.237 33.5575 213.927 33.3528 214.337 32.9434C214.746 32.534 214.951 31.8431 214.951 30.8708V30.1032C214.951 29.1394 214.746 28.4528 214.337 28.0434C213.927 27.6254 213.237 27.4165 212.264 27.4165H207.351V33.5575ZM226.772 42.5132C226.09 42.2488 225.885 41.7797 226.158 41.1059L232.248 26.1115C232.504 25.5485 232.905 25.2671 233.451 25.2671H233.502C234.056 25.2927 234.432 25.5741 234.628 26.1115L240.82 41.1059C241.093 41.7797 240.897 42.2488 240.232 42.5132C239.558 42.7777 239.089 42.5815 238.824 41.9247L237.443 38.5727H229.472L228.154 41.9247C227.89 42.59 227.429 42.7862 226.772 42.5132ZM230.316 36.4234H236.56L233.374 28.6703L230.316 36.4234ZM252.105 42.6156C251.388 42.6156 251.03 42.2574 251.03 41.5409V26.3418C251.03 25.6253 251.388 25.2671 252.105 25.2671C252.821 25.2671 253.179 25.6253 253.179 26.3418V40.4662H260.267C260.984 40.4662 261.342 40.8245 261.342 41.5409C261.342 42.2574 260.984 42.6156 260.267 42.6156H252.105ZM284.895 42.5132C284.212 42.2488 284.008 41.7797 284.281 41.1059L290.37 26.1115C290.626 25.5485 291.027 25.2671 291.573 25.2671H291.624C292.179 25.2927 292.554 25.5741 292.75 26.1115L298.942 41.1059C299.215 41.7797 299.019 42.2488 298.354 42.5132C297.68 42.7777 297.211 42.5815 296.947 41.9247L295.565 38.5727H287.594L286.276 41.9247C286.012 42.59 285.551 42.7862 284.895 42.5132ZM288.439 36.4234H294.682L291.496 28.6703L288.439 36.4234ZM314.02 42.6156C312.067 42.6156 310.621 42.1508 309.683 41.2211C308.753 40.2828 308.288 38.8371 308.288 36.8839V30.9987C308.288 29.0285 308.753 27.5785 309.683 26.6488C310.613 25.7106 312.05 25.25 313.994 25.2671H317.091C318.694 25.2671 319.918 25.5997 320.762 26.265C321.607 26.9218 322.097 27.9623 322.234 29.3867C322.285 29.7449 322.217 30.0179 322.029 30.2055C321.841 30.3932 321.568 30.487 321.21 30.487C320.562 30.487 320.187 30.1288 320.084 29.4123C319.999 28.6276 319.726 28.0988 319.266 27.8259C318.813 27.5529 318.088 27.4165 317.091 27.4165H313.994C313.09 27.4079 312.378 27.5103 311.858 27.7235C311.346 27.9367 310.979 28.3078 310.758 28.8366C310.544 29.3569 310.438 30.0776 310.438 30.9987V36.8839C310.438 37.7966 310.544 38.513 310.758 39.0333C310.979 39.5536 311.35 39.9246 311.871 40.1464C312.391 40.3596 313.107 40.4662 314.02 40.4662H317.091C317.884 40.4662 318.502 40.3809 318.946 40.2103C319.398 40.0312 319.713 39.7199 319.892 39.2764C320.072 38.8329 320.161 38.206 320.161 37.3957V36.1931L318.165 36.1675C317.449 36.1675 317.091 35.8092 317.091 35.0928C317.091 34.3763 317.449 34.0181 318.165 34.0181L321.236 34.0437C321.952 34.0437 322.31 34.4019 322.31 35.1184V37.3957C322.31 39.2124 321.888 40.5387 321.044 41.3746C320.199 42.2019 318.882 42.6156 317.091 42.6156H314.02ZM334.241 42.6156C333.524 42.6156 333.166 42.2574 333.166 41.5409V26.3418C333.166 25.6253 333.524 25.2671 334.241 25.2671H343.427C344.143 25.2671 344.501 25.6253 344.501 26.3418C344.501 27.0582 344.143 27.4165 343.427 27.4165H335.315V32.7899H340.407C341.124 32.7899 341.482 33.1481 341.482 33.8646C341.482 34.581 341.124 34.9393 340.407 34.9393H335.315V40.4662H343.427C344.143 40.4662 344.501 40.8245 344.501 41.5409C344.501 42.2574 344.143 42.6156 343.427 42.6156H334.241ZM356.055 42.6156C355.339 42.6156 354.98 42.2574 354.98 41.5409V26.3418C354.98 25.6253 355.339 25.2671 356.055 25.2671C356.422 25.2671 356.78 25.4803 357.13 25.9068L367.416 39.1612H366.879V26.3418C366.879 25.6253 367.237 25.2671 367.953 25.2671C368.67 25.2671 369.028 25.6253 369.028 26.3418V41.5409C369.028 42.2574 368.67 42.6156 367.953 42.6156C367.57 42.6156 367.211 42.4024 366.879 41.9759L356.592 28.7214H357.13V41.5409C357.13 42.2574 356.772 42.6156 356.055 42.6156ZM385.861 42.6156C383.908 42.6156 382.462 42.1508 381.524 41.2211C380.594 40.2828 380.129 38.8371 380.129 36.8839V30.9987C380.129 29.0285 380.594 27.5785 381.524 26.6488C382.453 25.7106 383.89 25.25 385.835 25.2671H388.931C390.535 25.2671 391.759 25.5997 392.603 26.265C393.447 26.9218 393.938 27.9623 394.074 29.3867C394.126 29.7449 394.057 30.0179 393.87 30.2055C393.682 30.3932 393.409 30.487 393.051 30.487C392.403 30.487 392.027 30.1288 391.925 29.4123C391.84 28.6276 391.567 28.0988 391.106 27.8259C390.654 27.5529 389.929 27.4165 388.931 27.4165H385.835C384.931 27.4079 384.219 27.5103 383.699 27.7235C383.187 27.9367 382.82 28.3078 382.598 28.8366C382.385 29.3569 382.278 30.0776 382.278 30.9987V36.8839C382.278 37.7966 382.385 38.513 382.598 39.0333C382.82 39.5536 383.191 39.9246 383.711 40.1464C384.232 40.3596 384.948 40.4662 385.861 40.4662H388.931C389.929 40.4662 390.654 40.3298 391.106 40.0568C391.567 39.7754 391.84 39.2465 391.925 38.4704C392.027 37.7539 392.403 37.3957 393.051 37.3957C393.409 37.3957 393.682 37.4895 393.87 37.6772C394.057 37.8648 394.126 38.1377 394.074 38.496C393.938 39.9289 393.447 40.9737 392.603 41.6305C391.759 42.2872 390.535 42.6156 388.931 42.6156H385.861ZM409.536 42.6156C408.82 42.6156 408.461 42.2574 408.461 41.5409V36.321L402.602 26.9815C402.244 26.3674 402.354 25.8641 402.934 25.4718C403.548 25.0965 404.043 25.2074 404.418 25.8044L409.536 34.0181L414.909 25.8044C415.089 25.523 415.306 25.3566 415.562 25.3055C415.818 25.2458 416.086 25.3183 416.368 25.523C416.991 25.9068 417.101 26.3929 416.701 26.9815L410.611 36.321V41.5409C410.611 42.2574 410.252 42.6156 409.536 42.6156Z" fill="#211F20"/>
</svg>
