<svg width="419" height="65" viewBox="0 0 419 65" fill="none" xmlns="http://www.w3.org/2000/svg">
<path d="M139.266 46.5454V8.24592H147.795V46.5454H139.266ZM133.133 26.6988V19.4514H153.928V26.6988H133.133ZM154.062 46.5454V19.4514H162.592V46.5454H154.062ZM162.592 31.6605L159.024 28.873C159.73 25.7139 160.919 23.261 162.592 21.5142C164.264 19.7674 166.587 18.894 169.561 18.894C170.861 18.894 171.995 19.0984 172.961 19.5072C173.965 19.8789 174.838 20.4735 175.581 21.2912L170.508 27.7023C170.137 27.2935 169.672 26.9775 169.115 26.7546C168.557 26.5316 167.925 26.4201 167.219 26.4201C165.807 26.4201 164.673 26.8661 163.818 27.758C163.001 28.6128 162.592 29.9137 162.592 31.6605ZM184.785 47.1029C182.295 47.1029 180.065 46.4897 178.095 45.2632C176.162 44.0367 174.62 42.3642 173.468 40.2458C172.353 38.1273 171.795 35.7115 171.795 32.9984C171.795 30.2853 172.353 27.8695 173.468 25.7511C174.62 23.6326 176.162 21.9601 178.095 20.7337C180.065 19.5072 182.295 18.894 184.785 18.894C186.606 18.894 188.241 19.247 189.691 19.9532C191.177 20.6593 192.385 21.6442 193.314 22.9079C194.244 24.1344 194.764 25.5467 194.875 27.1448V38.8521C194.764 40.4502 194.244 41.8811 193.314 43.1447C192.422 44.3712 191.233 45.3375 189.746 46.0437C188.26 46.7498 186.606 47.1029 184.785 47.1029ZM186.513 39.4096C188.334 39.4096 189.802 38.8149 190.917 37.6256C192.032 36.3991 192.59 34.8567 192.59 32.9984C192.59 31.7348 192.329 30.6198 191.809 29.6535C191.326 28.6872 190.62 27.9439 189.691 27.4235C188.799 26.8661 187.758 26.5873 186.569 26.5873C185.379 26.5873 184.32 26.8661 183.391 27.4235C182.499 27.9439 181.774 28.6872 181.217 29.6535C180.697 30.6198 180.436 31.7348 180.436 32.9984C180.436 34.2249 180.697 35.3213 181.217 36.2876C181.737 37.2539 182.462 38.0158 183.391 38.5733C184.32 39.1308 185.361 39.4096 186.513 39.4096ZM192.255 46.5454V39.2423L193.537 32.6639L192.255 26.0856V19.4514H200.617V46.5454H192.255ZM220.895 46.5454V31.103C220.895 29.6907 220.449 28.5571 219.557 27.7023C218.702 26.8103 217.606 26.3643 216.268 26.3643C215.339 26.3643 214.521 26.5687 213.815 26.9775C213.109 27.3492 212.551 27.9067 212.142 28.65C211.733 29.3562 211.529 30.1738 211.529 31.103L208.24 29.4862C208.24 27.3678 208.704 25.5095 209.634 23.9114C210.563 22.3132 211.845 21.0867 213.48 20.2319C215.153 19.34 217.03 18.894 219.111 18.894C221.118 18.894 222.883 19.3771 224.407 20.3434C225.968 21.2726 227.194 22.5176 228.086 24.0786C228.978 25.6396 229.424 27.3492 229.424 29.2075V46.5454H220.895ZM202.999 46.5454V19.4514H211.529V46.5454H202.999ZM241.146 47.2144C239.548 47.2144 237.969 47.01 236.408 46.6012C234.884 46.1923 233.453 45.6163 232.115 44.8729C230.814 44.0925 229.699 43.2005 228.77 42.197L233.62 37.2911C234.512 38.2574 235.572 39.0193 236.798 39.5768C238.025 40.0971 239.363 40.3573 240.812 40.3573C241.815 40.3573 242.577 40.2086 243.098 39.9113C243.655 39.614 243.934 39.2051 243.934 38.6848C243.934 38.0158 243.599 37.5141 242.93 37.1796C242.299 36.8079 241.481 36.492 240.477 36.2319C239.474 35.9345 238.415 35.6186 237.3 35.2841C236.185 34.9496 235.126 34.4851 234.122 33.8904C233.119 33.2958 232.301 32.4781 231.669 31.4375C231.037 30.3596 230.721 29.0031 230.721 27.3678C230.721 25.621 231.167 24.1158 232.059 22.8521C232.951 21.5513 234.215 20.5293 235.85 19.7859C237.486 19.0426 239.4 18.671 241.592 18.671C243.897 18.671 246.015 19.0798 247.948 19.8974C249.918 20.6779 251.516 21.8487 252.742 23.4096L247.892 28.3155C247.037 27.312 246.071 26.6059 244.993 26.1971C243.953 25.7882 242.93 25.5838 241.927 25.5838C240.961 25.5838 240.236 25.7325 239.753 26.0298C239.27 26.29 239.028 26.6802 239.028 27.2005C239.028 27.758 239.344 28.204 239.976 28.5385C240.608 28.873 241.425 29.1703 242.429 29.4305C243.432 29.6907 244.491 30.0066 245.606 30.3782C246.721 30.7499 247.781 31.2516 248.784 31.8835C249.788 32.5153 250.605 33.3701 251.237 34.4479C251.869 35.4885 252.185 36.8637 252.185 38.5733C252.185 41.2121 251.181 43.312 249.174 44.8729C247.205 46.4339 244.529 47.2144 241.146 47.2144ZM253.189 46.5454V6.07172H261.718V46.5454H253.189ZM275.418 47.1029C272.928 47.1029 270.698 46.4897 268.728 45.2632C266.796 44.0367 265.253 42.3642 264.101 40.2458C262.986 38.1273 262.429 35.7115 262.429 32.9984C262.429 30.2853 262.986 27.8695 264.101 25.7511C265.253 23.6326 266.796 21.9601 268.728 20.7337C270.698 19.5072 272.928 18.894 275.418 18.894C277.239 18.894 278.875 19.247 280.324 19.9532C281.811 20.6593 283.019 21.6442 283.948 22.9079C284.877 24.1344 285.397 25.5467 285.509 27.1448V38.8521C285.397 40.4502 284.877 41.8811 283.948 43.1447C283.056 44.3712 281.866 45.3375 280.38 46.0437C278.893 46.7498 277.239 47.1029 275.418 47.1029ZM277.146 39.4096C278.967 39.4096 280.436 38.8149 281.55 37.6256C282.665 36.3991 283.223 34.8567 283.223 32.9984C283.223 31.7348 282.963 30.6198 282.442 29.6535C281.959 28.6872 281.253 27.9439 280.324 27.4235C279.432 26.8661 278.391 26.5873 277.202 26.5873C276.013 26.5873 274.954 26.8661 274.024 27.4235C273.132 27.9439 272.408 28.6872 271.85 29.6535C271.33 30.6198 271.07 31.7348 271.07 32.9984C271.07 34.2249 271.33 35.3213 271.85 36.2876C272.37 37.2539 273.095 38.0158 274.024 38.5733C274.954 39.1308 275.994 39.4096 277.146 39.4096ZM282.888 46.5454V39.2423L284.171 32.6639L282.888 26.0856V19.4514H291.251V46.5454H282.888ZM293.633 46.5454V19.4514H302.162V46.5454H293.633ZM310.971 46.5454V30.7127C310.971 29.3376 310.543 28.2784 309.688 27.535C308.871 26.7546 307.849 26.3643 306.622 26.3643C305.767 26.3643 305.006 26.5501 304.337 26.9218C303.668 27.2563 303.129 27.7395 302.72 28.3713C302.348 29.0031 302.162 29.7836 302.162 30.7127L298.873 29.2633C298.873 27.1076 299.338 25.2679 300.267 23.7441C301.196 22.1831 302.46 20.9938 304.058 20.1762C305.656 19.3214 307.458 18.894 309.465 18.894C311.361 18.894 313.052 19.3214 314.539 20.1762C316.062 21.031 317.27 22.2203 318.162 23.7441C319.054 25.2679 319.5 27.089 319.5 29.2075V46.5454H310.971ZM328.309 46.5454V30.7127C328.309 29.3376 327.881 28.2784 327.026 27.535C326.209 26.7546 325.187 26.3643 323.96 26.3643C323.105 26.3643 322.343 26.5501 321.674 26.9218C321.005 27.2563 320.467 27.7395 320.058 28.3713C319.686 29.0031 319.5 29.7836 319.5 30.7127L314.594 30.0437C314.669 27.7395 315.208 25.7697 316.211 24.1344C317.252 22.4619 318.608 21.1797 320.281 20.2877C321.99 19.3585 323.904 18.894 326.023 18.894C328.104 18.894 329.944 19.34 331.542 20.2319C333.177 21.0867 334.46 22.3318 335.389 23.9671C336.355 25.5652 336.838 27.4979 336.838 29.765V46.5454H328.309ZM338.68 46.5454V19.4514H347.21V46.5454H338.68ZM342.973 15.7163C341.635 15.7163 340.52 15.2703 339.628 14.3783C338.773 13.4491 338.346 12.3342 338.346 11.0334C338.346 9.69539 338.773 8.58041 339.628 7.68843C340.52 6.79645 341.635 6.35046 342.973 6.35046C344.311 6.35046 345.407 6.79645 346.262 7.68843C347.117 8.58041 347.545 9.69539 347.545 11.0334C347.545 12.3342 347.117 13.4491 346.262 14.3783C345.407 15.2703 344.311 15.7163 342.973 15.7163ZM367.488 46.5454V31.103C367.488 29.6907 367.042 28.5571 366.15 27.7023C365.295 26.8103 364.199 26.3643 362.861 26.3643C361.932 26.3643 361.114 26.5687 360.408 26.9775C359.702 27.3492 359.145 27.9067 358.736 28.65C358.327 29.3562 358.122 30.1738 358.122 31.103L354.833 29.4862C354.833 27.3678 355.298 25.5095 356.227 23.9114C357.156 22.3132 358.438 21.0867 360.074 20.2319C361.746 19.34 363.623 18.894 365.704 18.894C367.711 18.894 369.477 19.3771 371 20.3434C372.561 21.2726 373.788 22.5176 374.68 24.0786C375.572 25.6396 376.018 27.3492 376.018 29.2075V46.5454H367.488ZM349.593 46.5454V19.4514H358.122V46.5454H349.593ZM389.189 47.1029C386.699 47.1029 384.469 46.4897 382.5 45.2632C380.567 44.0367 379.025 42.3642 377.872 40.2458C376.757 38.1273 376.2 35.7115 376.2 32.9984C376.2 30.2853 376.757 27.8695 377.872 25.7511C379.025 23.6326 380.567 21.9601 382.5 20.7337C384.469 19.5072 386.699 18.894 389.189 18.894C391.011 18.894 392.646 19.247 394.095 19.9532C395.582 20.6593 396.79 21.6442 397.719 22.9079C398.648 24.1344 399.168 25.5467 399.28 27.1448V38.8521C399.168 40.4502 398.648 41.8811 397.719 43.1447C396.827 44.3712 395.638 45.3375 394.151 46.0437C392.664 46.7498 391.011 47.1029 389.189 47.1029ZM390.918 39.4096C392.739 39.4096 394.207 38.8149 395.322 37.6256C396.437 36.3991 396.994 34.8567 396.994 32.9984C396.994 31.7348 396.734 30.6198 396.214 29.6535C395.731 28.6872 395.024 27.9439 394.095 27.4235C393.203 26.8661 392.163 26.5873 390.973 26.5873C389.784 26.5873 388.725 26.8661 387.796 27.4235C386.904 27.9439 386.179 28.6872 385.621 29.6535C385.101 30.6198 384.841 31.7348 384.841 32.9984C384.841 34.2249 385.101 35.3213 385.621 36.2876C386.142 37.2539 386.867 38.0158 387.796 38.5733C388.725 39.1308 389.765 39.4096 390.918 39.4096ZM396.66 46.5454V39.2423L397.942 32.6639L396.66 26.0856V19.4514H405.022V46.5454H396.66ZM407.404 46.5454V6.07172H415.934V46.5454H407.404Z" fill="#131313"/>
<path fill-rule="evenodd" clip-rule="evenodd" d="M83.1135 50.2207L107.477 29.3014C100.851 21.5205 89.1948 20.6098 81.4412 27.2673L78.6375 29.6747L56.2438 3.3765C53.0348 -0.392088 47.389 -0.833175 43.6335 2.39131L36.3902 8.61063L70.7802 48.9969C73.3807 52.0507 77.5812 52.9195 81.0793 51.4234C81.803 51.1538 82.4926 50.7538 83.1135 50.2207Z" fill="#778A8E"/>
<path fill-rule="evenodd" clip-rule="evenodd" d="M24.3635 15.3253L-3.94746e-05 36.2447C6.62555 44.0256 18.2822 44.9362 26.0358 38.2787L29.5419 35.2683L51.9357 61.5667C55.1448 65.3352 60.7906 65.7763 64.546 62.5518L71.7894 56.3325L37.3994 15.9463C34.1903 12.1777 28.5445 11.7366 24.7891 14.9611L24.4474 15.2545C24.4193 15.2778 24.3913 15.3015 24.3635 15.3253Z" fill="#778A8E"/>
</svg>
